<mxfile host="app.diagrams.net" modified="2023-11-08T01:48:22.227Z" agent="Mozilla/5.0 (Windows NT 10.0; Win64; x64) AppleWebKit/537.36 (KHTML, like Gecko) Chrome/118.0.0.0 Safari/537.36" etag="HifI-KkFh_7dqlNw-rEC" version="22.0.8" type="github">
  <diagram id="C5RBs43oDa-KdzZeNtuy" name="Page-1">
    <mxGraphModel dx="1235" dy="675" grid="1" gridSize="10" guides="1" tooltips="1" connect="1" arrows="1" fold="1" page="1" pageScale="1" pageWidth="827" pageHeight="1169" math="0" shadow="0">
      <root>
        <mxCell id="WIyWlLk6GJQsqaUBKTNV-0" />
        <mxCell id="WIyWlLk6GJQsqaUBKTNV-1" parent="WIyWlLk6GJQsqaUBKTNV-0" />
        <mxCell id="b3zhdHq0NaJjq-jHibz3-5" style="edgeStyle=orthogonalEdgeStyle;rounded=0;orthogonalLoop=1;jettySize=auto;html=1;exitX=0.5;exitY=1;exitDx=0;exitDy=0;exitPerimeter=0;entryX=0.5;entryY=0;entryDx=0;entryDy=0;" edge="1" parent="WIyWlLk6GJQsqaUBKTNV-1" source="b3zhdHq0NaJjq-jHibz3-1" target="b3zhdHq0NaJjq-jHibz3-4">
          <mxGeometry relative="1" as="geometry" />
        </mxCell>
        <mxCell id="b3zhdHq0NaJjq-jHibz3-1" value="Mulai" style="strokeWidth=2;html=1;shape=mxgraph.flowchart.terminator;whiteSpace=wrap;" vertex="1" parent="WIyWlLk6GJQsqaUBKTNV-1">
          <mxGeometry x="364" y="30" width="100" height="60" as="geometry" />
        </mxCell>
        <mxCell id="b3zhdHq0NaJjq-jHibz3-8" style="edgeStyle=orthogonalEdgeStyle;rounded=0;orthogonalLoop=1;jettySize=auto;html=1;exitX=0.5;exitY=1;exitDx=0;exitDy=0;entryX=0.5;entryY=0;entryDx=0;entryDy=0;" edge="1" parent="WIyWlLk6GJQsqaUBKTNV-1" source="b3zhdHq0NaJjq-jHibz3-4" target="b3zhdHq0NaJjq-jHibz3-6">
          <mxGeometry relative="1" as="geometry" />
        </mxCell>
        <mxCell id="b3zhdHq0NaJjq-jHibz3-4" value="Membaca sensor DHT" style="rounded=1;whiteSpace=wrap;html=1;absoluteArcSize=1;arcSize=14;strokeWidth=2;" vertex="1" parent="WIyWlLk6GJQsqaUBKTNV-1">
          <mxGeometry x="341" y="150" width="146" height="50" as="geometry" />
        </mxCell>
        <mxCell id="b3zhdHq0NaJjq-jHibz3-6" value="Suhu" style="shape=parallelogram;html=1;strokeWidth=2;perimeter=parallelogramPerimeter;whiteSpace=wrap;rounded=1;arcSize=12;size=0.23;" vertex="1" parent="WIyWlLk6GJQsqaUBKTNV-1">
          <mxGeometry x="374" y="240" width="80" height="50" as="geometry" />
        </mxCell>
        <mxCell id="b3zhdHq0NaJjq-jHibz3-20" style="edgeStyle=orthogonalEdgeStyle;rounded=0;orthogonalLoop=1;jettySize=auto;html=1;exitX=0;exitY=0.5;exitDx=0;exitDy=0;exitPerimeter=0;entryX=1;entryY=0.5;entryDx=0;entryDy=0;" edge="1" parent="WIyWlLk6GJQsqaUBKTNV-1" source="b3zhdHq0NaJjq-jHibz3-9" target="b3zhdHq0NaJjq-jHibz3-19">
          <mxGeometry relative="1" as="geometry" />
        </mxCell>
        <mxCell id="b3zhdHq0NaJjq-jHibz3-22" value="False" style="edgeLabel;html=1;align=center;verticalAlign=middle;resizable=0;points=[];" vertex="1" connectable="0" parent="b3zhdHq0NaJjq-jHibz3-20">
          <mxGeometry x="-0.0818" y="-3" relative="1" as="geometry">
            <mxPoint as="offset" />
          </mxGeometry>
        </mxCell>
        <mxCell id="b3zhdHq0NaJjq-jHibz3-24" style="edgeStyle=orthogonalEdgeStyle;rounded=0;orthogonalLoop=1;jettySize=auto;html=1;exitX=0.5;exitY=1;exitDx=0;exitDy=0;exitPerimeter=0;entryX=0.5;entryY=0;entryDx=0;entryDy=0;" edge="1" parent="WIyWlLk6GJQsqaUBKTNV-1" source="b3zhdHq0NaJjq-jHibz3-9" target="b3zhdHq0NaJjq-jHibz3-23">
          <mxGeometry relative="1" as="geometry" />
        </mxCell>
        <mxCell id="b3zhdHq0NaJjq-jHibz3-28" value="True" style="edgeLabel;html=1;align=center;verticalAlign=middle;resizable=0;points=[];" vertex="1" connectable="0" parent="b3zhdHq0NaJjq-jHibz3-24">
          <mxGeometry x="0.0571" y="-6" relative="1" as="geometry">
            <mxPoint as="offset" />
          </mxGeometry>
        </mxCell>
        <mxCell id="b3zhdHq0NaJjq-jHibz3-9" value="Suhu &amp;gt;= sekian" style="strokeWidth=2;html=1;shape=mxgraph.flowchart.decision;whiteSpace=wrap;" vertex="1" parent="WIyWlLk6GJQsqaUBKTNV-1">
          <mxGeometry x="364" y="350" width="100" height="100" as="geometry" />
        </mxCell>
        <mxCell id="b3zhdHq0NaJjq-jHibz3-10" style="edgeStyle=orthogonalEdgeStyle;rounded=0;orthogonalLoop=1;jettySize=auto;html=1;exitX=0.5;exitY=1;exitDx=0;exitDy=0;entryX=0.5;entryY=0;entryDx=0;entryDy=0;entryPerimeter=0;" edge="1" parent="WIyWlLk6GJQsqaUBKTNV-1" source="b3zhdHq0NaJjq-jHibz3-6" target="b3zhdHq0NaJjq-jHibz3-9">
          <mxGeometry relative="1" as="geometry" />
        </mxCell>
        <mxCell id="b3zhdHq0NaJjq-jHibz3-21" style="edgeStyle=orthogonalEdgeStyle;rounded=0;orthogonalLoop=1;jettySize=auto;html=1;exitX=0.5;exitY=0;exitDx=0;exitDy=0;entryX=0;entryY=0.5;entryDx=0;entryDy=0;" edge="1" parent="WIyWlLk6GJQsqaUBKTNV-1" source="b3zhdHq0NaJjq-jHibz3-19" target="b3zhdHq0NaJjq-jHibz3-6">
          <mxGeometry relative="1" as="geometry">
            <Array as="points">
              <mxPoint x="245" y="265" />
            </Array>
          </mxGeometry>
        </mxCell>
        <mxCell id="b3zhdHq0NaJjq-jHibz3-19" value="Kipas Off" style="rounded=1;whiteSpace=wrap;html=1;absoluteArcSize=1;arcSize=14;strokeWidth=2;" vertex="1" parent="WIyWlLk6GJQsqaUBKTNV-1">
          <mxGeometry x="200" y="375" width="90" height="50" as="geometry" />
        </mxCell>
        <mxCell id="b3zhdHq0NaJjq-jHibz3-25" style="edgeStyle=orthogonalEdgeStyle;rounded=0;orthogonalLoop=1;jettySize=auto;html=1;exitX=1;exitY=0.5;exitDx=0;exitDy=0;entryX=1;entryY=0.5;entryDx=0;entryDy=0;" edge="1" parent="WIyWlLk6GJQsqaUBKTNV-1" source="b3zhdHq0NaJjq-jHibz3-23" target="b3zhdHq0NaJjq-jHibz3-6">
          <mxGeometry relative="1" as="geometry">
            <Array as="points">
              <mxPoint x="550" y="538" />
              <mxPoint x="550" y="265" />
            </Array>
          </mxGeometry>
        </mxCell>
        <mxCell id="b3zhdHq0NaJjq-jHibz3-23" value="Kipas On" style="rounded=1;whiteSpace=wrap;html=1;absoluteArcSize=1;arcSize=14;strokeWidth=2;" vertex="1" parent="WIyWlLk6GJQsqaUBKTNV-1">
          <mxGeometry x="364" y="510" width="100" height="55" as="geometry" />
        </mxCell>
        <mxCell id="b3zhdHq0NaJjq-jHibz3-26" value="Selesai" style="strokeWidth=2;html=1;shape=mxgraph.flowchart.terminator;whiteSpace=wrap;" vertex="1" parent="WIyWlLk6GJQsqaUBKTNV-1">
          <mxGeometry x="364" y="600" width="100" height="60" as="geometry" />
        </mxCell>
        <mxCell id="b3zhdHq0NaJjq-jHibz3-27" style="edgeStyle=orthogonalEdgeStyle;rounded=0;orthogonalLoop=1;jettySize=auto;html=1;exitX=0.5;exitY=1;exitDx=0;exitDy=0;entryX=0.5;entryY=0;entryDx=0;entryDy=0;entryPerimeter=0;" edge="1" parent="WIyWlLk6GJQsqaUBKTNV-1" source="b3zhdHq0NaJjq-jHibz3-23" target="b3zhdHq0NaJjq-jHibz3-26">
          <mxGeometry relative="1" as="geometry" />
        </mxCell>
      </root>
    </mxGraphModel>
  </diagram>
</mxfile>
